<?xml version="1.0" standalone="no"?>
<!DOCTYPE svg PUBLIC "-//W3C//DTD SVG 20010904//EN"
 "http://www.w3.org/TR/2001/REC-SVG-20010904/DTD/svg10.dtd">
<svg version="1.0" xmlns="http://www.w3.org/2000/svg"
 width="225.000000pt" height="225.000000pt" viewBox="0 0 225.000000 225.000000"
 preserveAspectRatio="xMidYMid meet">

<g transform="translate(0.000000,225.000000) scale(0.100000,-0.100000)"
fill="#000000" stroke="none">
<path d="M0 1125 l0 -1125 1125 0 1125 0 0 1125 0 1125 -1125 0 -1125 0 0
-1125z m1539 550 c30 -29 51 -118 51 -219 0 -85 0 -85 65 -60 14 6 16 1 13
-22 -2 -24 -9 -31 -40 -38 l-36 -9 -8 -85 c-8 -102 0 -271 16 -326 7 -21 23
-50 37 -63 20 -21 31 -25 64 -20 28 4 39 1 39 -8 0 -17 -23 -25 -72 -25 -32 0
-47 7 -73 33 -51 51 -60 97 -59 305 1 202 6 188 -69 175 -35 -5 -41 -11 -69
-67 -69 -138 -188 -294 -250 -327 -36 -19 -18 23 33 79 28 30 66 79 84 108 43
66 98 175 92 180 -2 3 -27 -11 -55 -31 -58 -39 -62 -41 -62 -21 0 19 54 63
108 90 40 19 48 30 83 104 21 45 52 103 68 128 36 52 37 64 13 94 -24 29 -68
22 -132 -20 -50 -33 -60 -36 -60 -17 0 15 86 75 126 86 37 11 63 5 93 -24z
m-687 -158 c16 -32 22 -67 26 -150 5 -120 0 -113 70 -92 19 6 22 4 22 -19 0
-22 -6 -27 -44 -37 l-43 -11 -7 -127 c-6 -125 4 -250 24 -301 14 -35 48 -54
93 -51 43 2 49 -15 10 -30 -72 -27 -141 28 -163 129 -7 35 -10 118 -8 216 l3
158 -54 -4 c-30 -3 -56 -9 -58 -14 -12 -35 -126 -224 -162 -269 -58 -72 -110
-113 -122 -94 -5 9 2 23 24 44 63 59 128 151 179 257 10 20 18 40 18 43 0 9
-63 -25 -86 -47 -15 -14 -24 -16 -29 -8 -11 17 32 57 93 87 50 24 55 31 93
111 21 46 53 105 70 131 29 42 30 48 17 71 -24 43 -74 39 -150 -12 -28 -20
-48 -23 -48 -9 0 12 93 71 127 80 44 12 81 -6 105 -52z m1124 -239 c5 -16 1
-27 -16 -40 -20 -16 -25 -17 -44 -5 -29 20 -32 52 -5 71 26 18 54 7 65 -26z
m-1675 -178 c21 -12 25 -50 7 -68 -30 -30 -83 -1 -70 38 13 39 30 47 63 30z"/>
<path d="M1497 1455 c-21 -46 -37 -86 -37 -89 0 -10 50 -7 71 4 16 9 19 22 19
85 0 40 -4 76 -8 79 -5 3 -25 -33 -45 -79z"/>
<path d="M794 1339 l-41 -94 35 -3 c19 -2 39 1 44 6 5 5 8 49 6 97 l-3 89 -41
-95z"/>
</g>
</svg>
